<?xml version="1.0" encoding="utf-8"?>
<!-- Generator: Adobe Illustrator 24.2.3, SVG Export Plug-In . SVG Version: 6.00 Build 0)  -->
<svg version="1.1" id="Layer_1" xmlns="http://www.w3.org/2000/svg" xmlns:xlink="http://www.w3.org/1999/xlink" x="0px" y="0px"
	 viewBox="0 0 700 700" style="enable-background:new 0 0 700 700;" xml:space="preserve">
<style type="text/css">
	.st0{fill:#FFFFFF;}
	.st1{font-family:'NeoSans-LightItalic';}
	.st2{font-size:81.7576px;}
	.st3{fill:none;stroke:#534741;stroke-miterlimit:10;}
</style>
<rect x="-4.42" y="278.9" class="st0" width="699.49" height="290.97"/>
<text transform="matrix(1 0 0 1 70.9478 397.5372)" class="st1 st2">frameoverframe</text>
<g>
	<path class="st3" d="M692.07,569.1c-25.12-0.07-50.25-0.17-75.37-0.22c-44.59-0.09-89.18-0.21-133.77-0.2
		c-46.46,0.01-92.93,0.2-139.39,0.25c-42.59,0.05-85.18,0.02-127.77,0.01c-71.31-0.01-142.62-0.06-213.93,0.01
		c-3.66,0-4.94-1.26-4.71-4.82c0.2-3.15,0.38-6.36-0.03-9.47c-0.53-4.13,1.22-4.88,4.84-4.74c6.65,0.25,13.33-0.2,19.97,0.14
		c7.23,0.37,12.79-4.78,12.71-12.56c-0.28-24.78-0.19-49.56-0.04-74.34c0.04-6.57-4.85-11.93-11.68-11.61
		c-6.77,0.31-13.57,0.08-20.35,0.05c-1.73-0.01-3.46-0.16-5.1-0.25c-0.95-3.05,0.92-3.2,2.77-3.33c7.41-0.5,7.41-0.49,7.42-8.02
		c0-0.38,0-0.76,0-1.14c0-7.09,0-7.18-7-7.31c-2.56-0.05-3.74-0.89-3.48-3.56c0.15-1.5,0.03-3.02,0.03-4.94
		c1.62-0.11,3.07-0.29,4.53-0.29c34.41,0.02,68.83,0.1,103.24,0.08c62.82-0.03,125.63-0.14,188.45-0.15
		c96.98-0.03,193.96,0,290.93,0c35.92,0,71.83-0.02,107.75-0.03c0,3.03,0,6.07,0,9.1c-2-0.07-4.01-0.06-6-0.23
		c-3.52-0.3-4.61,1.58-4.52,4.75c0.07,2.4,0.18,4.81,0,7.19c-0.28,3.72,1.56,4.87,4.92,4.74c1.86-0.08,3.74,0.15,5.6,0.24
		c0,1.01,0,2.02,0,3.03c-8.65,0.02-17.31,0.08-25.96,0.05c-4.06-0.01-7.53,1.46-9.23,5.1c-1.29,2.76-1.97,6.03-2.04,9.09
		c-0.12,5.14,0.7,10.29,0.72,15.44c0.07,18.89,0.11,37.79-0.11,56.68c-0.09,7.73,4.83,12.58,12.55,12.24
		c8.01-0.35,16.05-0.02,24.07,0.02C692.07,556.45,692.07,562.78,692.07,569.1z M343.15,500.91c0-12.89,0.17-25.78-0.08-38.67
		c-0.11-5.76-4.02-10.81-10.36-10.74c-17.2,0.21-34.4,0.25-51.59-0.03c-7.21-0.12-11.84,4.69-11.82,11.61
		c0.09,25.14,0.21,50.28-0.04,75.42c-0.07,6.62,5.57,11.62,11.3,11.56c17.08-0.17,34.16-0.17,51.23-0.07
		c6.9,0.04,11.44-5.21,11.39-11.56C343.08,525.93,343.15,513.42,343.15,500.91z M188.46,500.84c0.01,0,0.01,0,0.02,0
		c0-12.77-0.06-25.53,0.02-38.3c0.04-6.45-4.15-11-10.84-10.97c-17.08,0.1-34.16,0.16-51.24-0.08c-7.04-0.1-11.74,5.14-11.75,12.05
		c-0.07,24.88-0.03,49.77-0.02,74.65c0,6.4,4.87,11.74,11.28,11.78c17.2,0.12,34.4-0.03,51.61,0.01c6.76,0.02,11.14-4.79,11-11.61
		C188.27,525.87,188.46,513.36,188.46,500.84z M192.17,500.41c0,12.39,0.06,24.78-0.02,37.17c-0.05,7.49,4.71,12.7,12.39,12.54
		c16.32-0.34,32.65-0.3,48.97-0.08c6.8,0.09,12.71-4.2,12.58-12.72c-0.36-24.76-0.21-49.53-0.05-74.3
		c0.05-6.96-4.79-11.47-11.19-11.46c-17.09,0.03-34.17,0.12-51.26-0.09c-7.29-0.09-11.4,5.08-11.42,11.76
		C192.13,475.63,192.16,488.02,192.17,500.41z M574.57,501.12c-0.01,0-0.01,0-0.02,0c0-12.77-0.21-25.54,0.09-38.29
		c0.14-6.17-5.04-11.35-11.18-11.28c-16.95,0.18-33.91,0.17-50.86-0.05c-7.56-0.09-11.83,4.95-11.82,11.77
		c0.06,25.02,0.1,50.05-0.03,75.07c-0.03,6.36,4.59,11.74,11.12,11.71c17.33-0.1,34.66-0.11,51.99-0.07
		c5.43,0.01,11-5.25,10.82-11.33C574.31,526.16,574.57,513.63,574.57,501.12z M578.19,500.63c0,12.51-0.03,25.02,0.01,37.52
		c0.03,8.02,3.92,11.86,11.95,11.87c16.45,0,32.89-0.18,49.34,0.03c7.66,0.1,12.37-4.35,12.43-12.47
		c0.17-24.38,0.24-48.77-0.04-73.15c-0.1-9.28-4.29-13.11-13.02-13.02c-16.06,0.17-32.13,0.34-48.19,0.01
		c-7.05-0.15-12.81,3.8-12.57,12.07C578.44,475.86,578.18,488.24,578.19,500.63z M419.94,501.21c0-12.39-0.23-24.78,0.08-37.17
		c0.2-8.16-4.57-12.68-12.28-12.53c-16.2,0.31-32.41,0.29-48.61-0.05c-8.17-0.17-12.41,4.46-12.35,12.22
		c0.17,24.52,0.26,49.05-0.05,73.58c-0.11,8.49,4.87,13.07,13.04,12.87c15.95-0.38,31.91-0.32,47.86-0.06
		c7.1,0.12,12.65-4.04,12.4-12.47C419.66,525.48,419.93,513.34,419.94,501.21z M424.19,500.8c0.03,0,0.05,0,0.08,0
		c0,12.87-0.13,25.74,0.05,38.61c0.1,7.17,3.65,10.57,10.82,10.6c17.06,0.07,34.13-0.11,51.19,0c5.64,0.04,11.03-4.87,10.99-11.03
		c-0.18-25.39-0.11-50.78-0.05-76.17c0.02-6.87-4.57-11.33-11.46-11.26c-16.44,0.15-32.88,0.02-49.33,0.03
		c-9.29,0-12.25,3.01-12.28,12.47C424.16,476.29,424.19,488.55,424.19,500.8z M111.1,500.8c-0.01,0-0.02,0-0.03,0
		c0-12.76,0.08-25.52-0.03-38.28c-0.07-7.7-3.41-10.89-11.06-10.9c-16.57-0.04-33.14,0.03-49.7-0.08
		c-7.59-0.05-12.33,3.13-12.27,12.32c0.18,24.64,0.27,49.28,0,73.92c-0.1,8.89,5.5,12.38,12.44,12.31
		c16.07-0.17,32.14-0.09,48.22-0.11c9.34-0.01,12.42-3.08,12.42-12.39C111.1,525.32,111.1,513.06,111.1,500.8z M614.89,448.12
		c0-0.01,0-0.02,0-0.03c2.25,0,4.51-0.12,6.76,0.03c2.2,0.15,3.38-0.73,3.44-2.9c0.1-3.76,0.27-7.54,0.02-11.28
		c-0.06-0.9-1.63-2.38-2.56-2.43c-4.99-0.24-10-0.12-15-0.12c-2.14,0-3.25,1.09-3.29,3.21c-0.07,3.4-0.11,6.8-0.09,10.2
		c0.01,2.08,1.15,3.25,3.22,3.31C609.89,448.17,612.39,448.12,614.89,448.12z M74.51,431.26c-1.22,0-2.72-0.01-4.23,0
		c-6.16,0.06-6.31,0.21-6.32,6.33c0,1.89,0.11,3.8-0.03,5.68c-0.27,3.65,1.49,4.94,4.92,4.87c3.38-0.07,6.76,0.15,10.14,0.21
		c6.11,0.11,6.48-0.12,6.28-6.3C84.88,429.92,86.72,431.97,74.51,431.26z M228.86,448.14c2.38,0,4.75,0.02,7.13-0.01
		c2.57-0.03,3.92-1.26,3.85-3.97c-0.07-2.77-0.12-5.54,0-8.31c0.13-3.05-1.31-4.35-4.21-4.33c-3.5,0.02-7,0.01-10.51,0.01
		c-6.11,0-6.35,0.24-6.35,6.3C218.78,448.08,218.78,448.08,228.86,448.14z M460.25,448.12c2.13,0,4.27-0.1,6.4,0.02
		c3.26,0.18,4.49-1.55,4.51-4.53c0.02-2.53-0.06-5.06,0.02-7.58c0.11-3.21-1.58-4.51-4.53-4.52c-3.51-0.01-7.03,0.02-10.54,0.06
		c-5.93,0.07-5.92,0.08-5.96,6.25C450.05,450.29,449.55,447.99,460.25,448.12z M306.27,448.05c11.14-0.16,10.2,2.05,10.2-10.19
		c0-0.63-0.03-1.26,0.01-1.89c0.19-3.03-0.79-4.79-4.23-4.46c-2.24,0.21-4.51,0.06-6.77,0.03c-10.19-0.16-10.26-0.08-10.05,10.06
		c0.13,6.08,0.46,6.5,6.33,6.47C303.26,448.05,304.76,448.05,306.27,448.05z M537.77,448.1c2,0,4.01-0.07,6.01,0.02
		c2.09,0.09,3.92-0.37,4.09-2.74c0.27-3.69,0.5-7.44,0.17-11.11c-0.16-1.83-1.8-2.97-4.11-2.8c-3.36,0.25-6.76,0.08-10.14,0.11
		c-6.13,0.05-6.13,0.06-6.14,6.37C527.63,448.13,527.63,448.13,537.77,448.1z M383.42,448.06c0,0.04,0,0.07,0,0.11
		c2.13,0,4.26-0.03,6.4,0.01c2.52,0.04,4-0.82,3.87-3.7c-0.14-3.15-0.05-6.31-0.02-9.47c0.02-2.26-0.84-3.54-3.3-3.49
		c-4.51,0.08-9.03,0.02-13.55,0.08c-2.57,0.03-3.84,1.42-3.86,4.02c-0.01,1.51-0.23,3.03-0.15,4.54c0.4,7.43-1.27,8.43,7.98,7.91
		C381.66,448.02,382.54,448.06,383.42,448.06z M151.87,448.08c0-0.03,0-0.05,0-0.08c2.37,0,4.75-0.06,7.12,0.02
		c2.34,0.08,3.39-1.06,3.4-3.31c0.01-3.14-0.05-6.29,0.01-9.43c0.05-2.78-1.41-3.8-3.97-3.78c-4.25,0.03-8.5,0.12-12.75-0.01
		c-2.85-0.08-4.13,1.07-4.05,3.95c0.07,2.51-0.04,5.03-0.03,7.55c0.03,4.94,0.32,5.19,5.4,5.1
		C148.62,448.06,150.24,448.08,151.87,448.08z"/>
</g>
</svg>
